<?xml version="1.0" encoding="UTF-8"?>
<svg id="Layer_1" xmlns="http://www.w3.org/2000/svg" viewBox="0 0 52.56 63.37">
    <polygon points="9.49 18.98 18.98 18.98 18.98 9.49 18.98 0 9.49 0 0 0 0 9.49 9.49 9.49 9.49 18.98"/>
    <path
        d="M38.98,30.91v-1.49c9.3-1.3,11.72-7.45,11.72-13.5C50.7,8.43,45.58,.33,32.91,.03h-7.61V9.49h7.61c6.69,.11,8.11,4.45,8,7.87-.23,7.66-3.67,7.88-9.59,8.05H9.49V63.37h22.69c15.26,0,20.38-8.65,20.38-17.68,0-7.72-2.7-13.39-13.58-14.79Zm-6.52,22.9h-13.31v-19.17h13.31c8.04,0,10.63,1.52,10.63,9.74,0,6.91-2.59,9.42-10.63,9.42Z"/>
</svg>