<?xml version="1.0" encoding="UTF-8"?>
<svg id="Layer_1" xmlns="http://www.w3.org/2000/svg" viewBox="0 0 390.21 66.09">
    <defs>
        <style>.cls-1{fill:#fff;}</style>
    </defs>
    <g>
        <polygon class="cls-1"
            points="9.49 20.83 18.98 20.83 18.98 11.34 18.98 1.85 9.49 1.85 0 1.85 0 11.34 9.49 11.34 9.49 20.83"/>
        <path class="cls-1"
            d="M38.98,32.76v-1.49c9.3-1.3,11.72-7.45,11.72-13.5,0-7.48-5.12-15.59-17.78-15.89h-7.61V11.34h7.61c6.69,.11,8.11,4.45,8,7.87-.23,7.66-3.67,7.88-9.59,8.05H9.49v37.96h22.69c15.26,0,20.38-8.65,20.38-17.68,0-7.72-2.7-13.39-13.58-14.79Zm-6.52,22.9h-13.31v-19.17h13.31c8.04,0,10.63,1.52,10.63,9.74,0,6.91-2.59,9.42-10.63,9.42Z"/>
    </g>
    <g>
        <path class="cls-1"
            d="M60.04,49.8c0-8.1,5.31-16.29,16.66-16.29,6.52,0,10.15,1.86,12.94,5.59v-12.1h-24.2v-8.38h33.51V55.85h5.59v9.31h-14.89v-4.65c-2.79,3.72-6.42,5.59-12.94,5.59-11.36,0-16.66-8.19-16.66-16.29Zm29.6,0c0-4.65-3.35-7.91-10.15-7.91s-10.15,3.26-10.15,7.91,3.35,7.91,10.15,7.91,10.15-3.26,10.15-7.91Z"/>
        <path class="cls-1"
            d="M108.72,41.89c0-14.61,7.17-24.2,20.85-24.2,12.19,0,19.36,7.54,19.36,18.62h-9.31c-.37-5.77-2.33-10.24-9.59-10.24-8.66,0-12.01,3.72-12.01,15.82s3.35,15.82,12.01,15.82c7.26,0,9.22-4.47,9.59-10.24h9.31c0,11.08-7.17,18.62-19.36,18.62-13.68,0-20.85-9.59-20.85-24.2Z"/>
        <path class="cls-1"
            d="M167.08,46.17v18.99h-9.31V0h9.31V37.79h7.26l13.03-19.18h11.26l-15.92,23.36,15.92,23.18h-11.26l-13.03-18.99h-7.26Z"/>
        <path class="cls-1"
            d="M249.18,41.89c0,13.68-5.31,24.2-20.39,24.2-6.52,0-11.08-2.51-13.87-6.52v5.59h-9.31V0h9.31V24.2c2.79-4,7.35-6.52,13.87-6.52,15.08,0,20.39,10.52,20.39,24.2Zm-9.31,0c0-11.17-3.35-15.82-12.47-15.82s-12.47,4.65-12.47,15.82,3.35,15.82,12.47,15.82,12.47-4.65,12.47-15.82Z"/>
        <path class="cls-1"
            d="M255.24,49.8c0-8.1,5.31-16.29,16.66-16.29,6.52,0,10.15,1.86,12.94,5.59v-12.1h-24.2v-8.38h33.51V55.85h5.59v9.31h-14.89v-4.65c-2.79,3.72-6.42,5.59-12.94,5.59-11.36,0-16.66-8.19-16.66-16.29Zm29.6,0c0-4.65-3.35-7.91-10.15-7.91s-10.15,3.26-10.15,7.91,3.35,7.91,10.15,7.91,10.15-3.26,10.15-7.91Z"/>
        <path class="cls-1"
            d="M306.71,60.13v-9.4c8.47,5.31,12.85,6.98,19.73,6.98,6.05,0,8.19-2.61,8.19-5.49,0-3.26-2.42-5.03-10.98-6.89-13.31-2.89-16.94-7.26-16.94-14.61,0-7.73,6.61-13.03,16.57-13.03,6.24,0,12.38,1.68,16.94,4.84v8.38c-6.8-3.35-12.75-4.84-17.87-4.84-4.75,0-6.33,2.05-6.33,4.37,0,2.61,1.21,4.37,9.12,6.52,13.78,3.72,18.8,6.61,18.8,15.17,0,7.91-6.61,13.96-17.5,13.96-7.26,0-12.94-1.4-19.73-5.96Z"/>
        <path class="cls-1"
            d="M350,41.89c0-14.61,5.77-24.2,20.11-24.2s20.11,8.66,20.11,23.27v5.12h-30.72c.65,6.52,3.26,11.64,14.15,11.64,3.72,0,7.35,0,13.4-1.68v8.19c-7.26,1.86-9.87,1.86-13.4,1.86-21.04,0-23.64-14.99-23.64-24.2Zm30.9-4.19c-.19-8.1-3.26-11.64-10.8-11.64s-10.33,4.1-10.8,11.64h21.6Z"/>
    </g>
</svg>