<?xml version="1.0" encoding="UTF-8"?>
<svg width="80px" height="24px" viewBox="0 0 80 24" version="1.1" xmlns="http://www.w3.org/2000/svg" xmlns:xlink="http://www.w3.org/1999/xlink">
    <!-- Generator: Sketch 51.3 (57544) - http://www.bohemiancoding.com/sketch -->
    <title>Card Management/_atoms_cardProvider/Visa Colored</title>
    <desc>Created with Sketch.</desc>
    <defs></defs>
    <g id="Card-Management/_atoms_cardProvider/Visa-Colored" stroke="none" stroke-width="1" fill="none" fill-rule="evenodd">
        <g id="_Card-Provider-/-Visa" transform="translate(1.000000, 0.000000)" fill="#FFFFFF">
            <path d="M57.8057143,1.15840747 L56.9408627,6.15717076 L56.3663765,5.8908369 C55.1924264,5.42436777 53.6781557,4.97483316 51.594082,5.0071627 C49.0978769,5.0071627 47.9395378,6.0340106 47.9395378,6.9915809 C47.9254879,8.07231136 49.2930149,8.78356133 51.5238323,9.85043628 C55.2049152,11.499243 56.9018351,13.4959772 56.8784186,16.1177493 C56.8284633,20.9102193 52.4761057,24 45.7696035,24 C42.9081001,23.972289 40.1511906,23.4149892 38.6634586,22.7714773 L39.5595323,17.6064478 L40.3806729,17.9713098 C42.4772354,18.8318915 43.8322736,19.1813585 46.3831173,19.1813585 C48.2189754,19.1813585 50.1859663,18.477806 50.2046995,16.9306064 C50.2140662,15.920693 49.3773145,15.200206 46.8951593,14.0702115 C44.4738872,12.9663885 41.2705021,11.1143675 41.3048464,7.801359 C41.343874,3.3152499 45.7852145,0.186981654 52.0873908,0.186981654 C54.5601793,0.186981654 56.5427813,0.690398837 57.8057143,1.15840747 Z M74.1219983,0.186981654 L79.2,24 L73.3792504,24 C73.3792504,24 72.8037742,21.2634746 72.6165526,20.4302734 C71.7019292,20.4302734 65.3057034,20.4191428 64.5875091,20.4191428 C64.340438,21.0647148 63.2677504,24 63.2677504,24 L56.6796992,24 L65.9932056,2.16344946 C66.6530849,0.613122741 67.7764144,0.186981654 69.2787908,0.186981654 L74.1219983,0.186981654 Z M7.1422008,3.16866616 C5.07044319,2.02127088 2.6848871,1.10307369 0,0.477395433 L0.0778283442,0 L10.5497115,0 C11.9585633,0.0520238613 13.0989868,0.481985774 13.4913052,1.93406355 L15.7642105,12.4734858 C15.6332719,12.1503328 15.4914834,11.8303569 15.3389265,11.5139142 C15.5967366,12.0602327 15.8108186,12.6069015 15.9753804,13.1471079 L16.6439909,16.4512 L22.8942492,0.186981654 L29.6553383,0.186981654 L19.6043107,23.9904506 L12.8494702,24 L7.1422008,3.16866616 Z M66.3906678,15.5471417 C66.9108982,14.1733137 68.887467,8.88471205 68.887467,8.88471205 C68.8521712,8.94990527 69.4030937,7.50452375 69.7176873,6.61089953 L70.1427724,8.66528119 C70.1427724,8.66528119 71.3443666,14.3529926 71.5960416,15.5471417 L66.3906678,15.5471417 Z M28.5293233,24 L32.424603,0.186981654 L38.6634586,0.186981654 L34.7574986,24 L28.5293233,24 Z" id="Fill-1"></path>
        </g>
    </g>
</svg>
