<?xml version="1.0" encoding="UTF-8"?>
<svg width="39px" height="24px" viewBox="0 0 39 24" version="1.1" xmlns="http://www.w3.org/2000/svg" xmlns:xlink="http://www.w3.org/1999/xlink">
    <!-- Generator: Sketch 51.3 (57544) - http://www.bohemiancoding.com/sketch -->
    <title>Card Management/_atoms_cardProvider/MasterCard</title>
    <desc>Created with Sketch.</desc>
    <defs></defs>
    <g id="Card-Management/_atoms_cardProvider/MasterCard" stroke="none" stroke-width="1" fill="none" fill-rule="evenodd">
        <g id="_Card-Provider-/-MasterCard">
            <polygon id="Fill-1" fill="#FF5F00" points="14.1855215 21.3839003 24.6639928 21.3839003 24.6639928 2.5646052 14.1855215 2.5646052"></polygon>
            <path d="M14.8508213,11.9742527 C14.8508213,8.15626905 16.6394797,4.75585655 19.4247572,2.5646052 C17.3879419,0.961810066 14.8175563,0.00565183931 12.0239626,0.00565183931 C5.41055032,0.00565183931 0.0495648323,5.36392797 0.0495648323,11.9742527 C0.0495648323,18.584245 5.41055032,23.9428536 12.0239626,23.9428536 C14.8175563,23.9428536 17.3879419,22.9866954 19.4247572,21.3839003 C16.6394797,19.1923165 14.8508213,15.7922364 14.8508213,11.9742527" id="Fill-2" fill="#EB001B"></path>
            <path d="M38.426051,19.3907958 L38.426051,18.9260151 L38.3046338,18.9260151 L38.1652535,19.2455102 L38.0255406,18.9260151 L37.9041233,18.9260151 L37.9041233,19.3907958 L37.989947,19.3907958 L37.989947,19.0403817 L38.1206784,19.3422564 L38.2094959,19.3422564 L38.34056,19.0393843 L38.34056,19.3907958 L38.426051,19.3907958 Z M37.6576298,19.3907958 L37.6576298,19.0054733 L37.8129773,19.0054733 L37.8129773,18.92668 L37.4171239,18.92668 L37.4171239,19.0054733 L37.5724714,19.0054733 L37.5724714,19.3907958 L37.6576298,19.3907958 Z M38.7999495,11.9742527 C38.7999495,18.584245 33.438964,23.9428536 26.8255517,23.9428536 C24.031958,23.9428536 21.461905,22.9866954 19.4247572,21.3839003 C22.2100346,19.1923165 23.998693,15.7922364 23.998693,11.9742527 C23.998693,8.15626905 22.2100346,4.75585655 19.4247572,2.5646052 C21.461905,0.961810066 24.031958,0.00565183931 26.8255517,0.00565183931 C33.438964,0.00565183931 38.7999495,5.36392797 38.7999495,11.9742527 Z" id="Fill-3" fill="#F79E1B"></path>
        </g>
    </g>
</svg>
